<svg width="1024" height="1024" viewBox="0 0 1024 1024" fill="none" xmlns="http://www.w3.org/2000/svg">
<g clip-path="url(#clip0_1_2)">
<path fill-rule="evenodd" clip-rule="evenodd" d="M480.984 0.00186999C685.163 -0.461968 841.757 85.3632 950.765 257.479C1027.24 391.871 1043.82 533.23 1000.52 681.56C961.173 796.921 890.053 885.588 787.155 947.557C625.01 1040.48 458.53 1048.69 287.713 972.169C142.635 899.293 49.8273 784.754 9.28828 628.55C-19.7119 461.218 19.1968 311.654 126.016 179.857C219.458 72.5746 337.78 12.6221 480.984 0.00186999Z" fill="#1A2A41"/>
<path fill-rule="evenodd" clip-rule="evenodd" d="M479.07 7.57472C665.327 6.63 812.672 79.2046 921.105 225.295C819.054 227.504 716.996 227.818 614.934 226.241C601.183 213.759 585.237 205.24 567.094 200.683C545.534 125.761 495.142 85.3727 415.922 79.517C339.684 84.8653 286.423 122.097 256.139 191.217C245.997 219.712 243.444 248.74 248.485 278.305C230.178 288.534 214.549 301.786 201.602 318.062C151.185 310.968 112.594 329.27 85.8311 372.966C74.388 394.23 69.2845 416.949 70.5226 441.121C63.272 451.22 60.0821 461.947 60.9547 473.306C69.5907 460.334 81.0721 450.868 95.399 444.908C91.6924 396.919 111.148 363.155 153.763 343.621C167.477 339.181 181.51 337.92 195.861 339.834C202.766 342.339 209.783 343.6 216.911 343.621C236.917 304.982 269.13 284.473 313.546 282.091C317.058 283.263 321.202 283.579 325.984 283.038C309.009 272.71 290.512 267.977 270.491 268.839C264.878 199.46 292.945 148.657 354.688 116.435C419.095 91.4253 474.271 104.364 520.212 155.246C534.977 174.369 544.545 195.827 548.915 219.615C581.907 227.642 604.87 247.205 617.804 278.305C621.082 288.937 623.952 299.666 626.415 310.489C674.867 295.02 712.181 308.903 738.359 352.14C756.038 384.189 756.995 416.057 741.229 447.748C778.544 437.125 807.885 447.854 829.254 479.932C785.364 496.22 754.747 525.881 737.402 568.914C512.236 569.23 287.072 570.176 61.9115 571.753C64.4202 579.116 65.6965 586.689 65.7386 594.472C125.063 594.156 184.384 594.472 243.701 595.419C253.558 597.142 262.488 600.928 270.491 606.778C279.687 615.536 287.979 625.002 295.367 635.176C302.805 641.066 311.097 645.483 320.244 648.429C390.319 650.905 460.483 652.168 530.736 652.215C537.621 652.507 543.999 654.4 549.872 657.895C559.57 669.406 571.689 676.979 586.23 680.614C702.324 682.191 818.415 681.876 934.5 679.667C947.024 650.294 956.592 620.002 963.204 588.792C938.647 588.162 914.088 587.53 889.531 586.899C861.074 586.682 832.69 587.628 804.377 589.739C787.651 596.17 774.256 606.899 764.192 621.924C752.552 631.782 739.157 638.094 724.007 640.856C591.332 641.265 458.658 635.634 325.984 633.963C317.633 631.1 310.618 625.367 304.935 618.764C440.795 617.187 576.658 622.24 712.526 621.924C731.059 617.655 744.771 607.242 753.667 590.686C763.377 557.84 782.193 531.649 810.118 512.117C871.911 481.409 921.983 494.347 960.333 550.928C961.422 538.827 958.871 527.467 952.679 516.85C939.41 497.189 921.231 484.253 898.142 478.039C882.96 475.014 867.651 472.806 852.216 471.413C835.963 439.696 809.81 422.657 773.76 420.296C779.499 360.643 755.899 316.783 702.958 288.717C683.736 281.095 663.963 278.57 643.637 281.145C639.473 266.262 633.095 252.377 624.501 239.494C725.921 238.231 827.34 238.231 928.759 239.494C1014.85 370.97 1037.49 512.647 996.691 664.521C957.155 788.813 880.292 883.157 766.106 947.557C598.345 1036.9 430.588 1036.9 262.836 947.557C65.5702 827.605 -16.3938 653.743 16.9426 425.976C57.6787 241.065 165.158 112.01 339.379 38.8128C384.785 22.054 431.349 11.6413 479.07 7.57472Z" fill="white"/>
<path fill-rule="evenodd" clip-rule="evenodd" d="M479.07 7.57472C665.327 6.63 812.672 79.2046 921.105 225.295C819.054 227.504 716.996 227.818 614.934 226.241C601.183 213.759 585.237 205.24 567.094 200.683C545.534 125.761 495.142 85.3727 415.922 79.517C339.684 84.8653 286.423 122.097 256.139 191.217C245.997 219.712 243.444 248.74 248.485 278.305C230.178 288.534 214.549 301.786 201.602 318.062C151.185 310.968 112.594 329.27 85.8311 372.966C74.388 394.23 69.2845 416.949 70.5226 441.121C63.272 451.22 60.0821 461.947 60.9547 473.306C69.5907 460.334 81.0721 450.868 95.399 444.908C91.6924 396.919 111.148 363.155 153.763 343.621C167.477 339.181 181.51 337.92 195.861 339.834C202.766 342.339 209.783 343.6 216.911 343.621C236.917 304.982 269.13 284.473 313.546 282.091C317.058 283.263 321.202 283.579 325.984 283.038C309.009 272.71 290.512 267.977 270.491 268.839C264.878 199.46 292.945 148.657 354.688 116.435C419.095 91.4253 474.271 104.364 520.212 155.246C534.977 174.369 544.545 195.827 548.915 219.615C581.907 227.642 604.87 247.205 617.804 278.305C621.082 288.937 623.952 299.666 626.415 310.489C674.867 295.02 712.181 308.903 738.359 352.14C756.038 384.189 756.995 416.057 741.229 447.748C778.544 437.125 807.885 447.854 829.254 479.932C785.364 496.22 754.747 525.881 737.402 568.914C512.236 569.23 287.072 570.176 61.9115 571.753C64.4202 579.116 65.6965 586.689 65.7386 594.472C125.063 594.156 184.384 594.472 243.701 595.419C253.558 597.142 262.488 600.928 270.491 606.778C279.687 615.536 287.979 625.002 295.367 635.176C302.805 641.066 311.097 645.483 320.244 648.429C390.319 650.905 460.483 652.168 530.736 652.215C537.621 652.507 543.999 654.4 549.872 657.895C559.57 669.406 571.689 676.979 586.23 680.614C702.324 682.191 818.415 681.876 934.5 679.667C947.024 650.294 956.592 620.002 963.204 588.792C938.647 588.162 914.088 587.53 889.531 586.899C861.074 586.682 832.69 587.628 804.377 589.739C787.651 596.17 774.256 606.899 764.192 621.924C752.552 631.782 739.157 638.094 724.007 640.856C591.332 641.265 458.658 635.634 325.984 633.963C317.633 631.1 310.618 625.367 304.935 618.764C440.795 617.187 576.658 622.24 712.526 621.924C731.059 617.655 744.771 607.242 753.667 590.686C763.377 557.84 782.193 531.649 810.118 512.117C871.911 481.409 921.983 494.347 960.333 550.928C961.422 538.827 958.871 527.467 952.679 516.85C939.41 497.189 921.231 484.253 898.142 478.039C882.96 475.014 867.651 472.806 852.216 471.413C835.963 439.696 809.81 422.657 773.76 420.296C779.499 360.643 755.899 316.783 702.958 288.717C683.736 281.095 663.963 278.57 643.637 281.145C639.473 266.262 633.095 252.377 624.501 239.494C725.921 238.231 827.34 238.231 928.759 239.494C1014.85 370.97 1037.49 512.647 996.691 664.521C957.155 788.813 880.292 883.157 766.106 947.557C598.345 1036.9 430.588 1036.9 262.836 947.557C65.5702 827.605 -16.3938 653.743 16.9426 425.976C57.6787 241.065 165.158 112.01 339.379 38.8128C384.785 22.054 431.349 11.6413 479.07 7.57472Z" fill="white"/>
<path fill-rule="evenodd" clip-rule="evenodd" d="M896.228 405.15C920.714 405.745 937.619 417.104 946.938 439.228C948.214 442.384 948.214 445.538 946.938 448.694C931.067 412.259 905.873 403.74 871.352 423.136C867.142 427.365 863.635 432.098 860.827 437.335C862.551 424.825 869.249 415.675 880.92 409.883C886.297 408.403 891.4 406.824 896.228 405.15Z" fill="#1A2A41"/>
<path fill-rule="evenodd" clip-rule="evenodd" d="M385.305 425.976C434.275 424.319 465.849 446.407 480.027 492.238C481.699 497.689 481.06 502.736 478.113 507.384C462.839 456.152 428.714 434.38 375.737 442.068C343.524 453.747 323.432 476.152 315.46 509.277C312.8 480.135 323.962 457.1 348.947 440.175C360.628 433.706 372.746 428.973 385.305 425.976Z" fill="#1A2A41"/>
<path fill-rule="evenodd" clip-rule="evenodd" d="M563.267 484.665C593.417 486.763 610.002 501.909 613.02 530.103C599.432 495.296 575.192 484.883 540.304 498.865C530.891 504.703 523.874 512.592 519.255 522.53C521.436 506.528 530.683 494.717 547 488C547.563 487.768 549.206 487.107 549.5 487C555 485 555.5 485 563.267 484.665Z" fill="#1A2A41"/>
<path fill-rule="evenodd" clip-rule="evenodd" d="M283.886 585.686C430.109 583.87 576.497 587.238 723.05 587.792C724.485 588.978 726.081 589.924 727.834 590.632C722.421 595.984 716.041 599.771 708.698 601.992C570.284 603.254 431.868 603.254 293.454 601.992C289.552 599.345 286.362 590.243 283.886 585.686Z" fill="white"/>
<path fill-rule="evenodd" clip-rule="evenodd" d="M71.4793 619.084C122.606 618.206 173.633 619.152 224.565 621.924C230.532 623.929 236.272 626.452 241.787 629.497C256.009 646.261 270.678 662.668 285.799 678.72C296.661 686.933 308.781 692.613 322.157 695.759C523.346 697.136 724.271 699.029 924.932 701.439C922.62 705.699 920.07 709.801 917.278 713.745C821.605 715.322 725.926 716.268 630.242 716.585C607.819 724.252 592.193 739.082 583.36 761.075C575.413 772.109 564.888 779.368 551.786 782.847C420.383 783.883 288.983 784.513 157.59 784.74C115.551 736.588 86.8472 681.369 71.4793 619.084Z" fill="#1A2A41"/>
<path fill-rule="evenodd" clip-rule="evenodd" d="M670.427 738.357C748.256 737.726 826.075 738.357 903.883 740.25C885.903 768.745 864.216 795.566 838.821 820.711C644.913 821.342 451.004 821.974 257.096 822.605C241.515 825.713 230.034 834.233 222.651 848.163C212.909 842.629 203.979 836.003 195.861 828.284C190.048 823.167 184.945 817.487 180.553 811.245C181.51 810.299 182.466 809.352 183.423 808.406C188.659 807.953 194.08 808.585 199.689 810.299C325.961 808.746 452.257 807.8 578.576 807.459C597.22 806.283 612.209 798.394 623.545 783.794C632.728 761.768 648.354 746.622 670.427 738.357Z" fill="#1A2A41"/>
<path fill-rule="evenodd" clip-rule="evenodd" d="M280.059 844.377C456.746 844.839 633.434 845.785 810.118 847.217C675.687 955.598 525.79 982.733 360.429 928.625C320.094 913.884 282.78 894.006 248.485 868.989C247.208 867.095 247.208 865.202 248.485 863.309C256.416 852.306 266.941 845.994 280.059 844.377Z" fill="#1A2A41"/>
</g>
<defs>
<clipPath id="clip0_1_2">
<rect width="1024" height="1024" fill="white"/>
</clipPath>
</defs>
</svg>
